<mxfile host="65bd71144e" modified="2021-01-19T21:24:43.698Z" agent="5.0 (Windows NT 10.0; Win64; x64) AppleWebKit/537.36 (KHTML, like Gecko) Code/1.52.1 Chrome/83.0.4103.122 Electron/9.3.5 Safari/537.36" etag="qdf6jhkHNYvthug1hcOy" version="13.10.0" type="embed">
    <diagram name="Page-1" id="03018318-947c-dd8e-b7a3-06fadd420f32">
        <mxGraphModel dx="1315" dy="929" grid="1" gridSize="10" guides="1" tooltips="1" connect="1" arrows="1" fold="1" page="1" pageScale="1" pageWidth="1100" pageHeight="850" background="#ffffff" math="0" shadow="0">
            <root>
                <mxCell id="0"/>
                <mxCell id="1" parent="0"/>
                <mxCell id="32" value="" style="dashed=0;shape=mxgraph.gmdl.image;strokeColor=#bbbbbb;fillColor=#ffffff;" vertex="1" parent="1">
                    <mxGeometry width="1100" height="1700" as="geometry"/>
                </mxCell>
                <mxCell id="Qflf87N98xS_37OItXHl-12" value="" style="rounded=1;whiteSpace=wrap;html=1;fillColor=#dae8fc;strokeColor=#6c8ebf;" parent="1" vertex="1">
                    <mxGeometry x="50" y="90" width="250" height="260" as="geometry"/>
                </mxCell>
                <mxCell id="Qflf87N98xS_37OItXHl-41" value="Tempo:" style="text;html=1;strokeColor=none;fillColor=none;align=center;verticalAlign=middle;whiteSpace=wrap;rounded=0;" parent="1" vertex="1">
                    <mxGeometry x="930" y="90" width="130" height="30" as="geometry"/>
                </mxCell>
                <mxCell id="13" value="" style="dashed=0;shape=mxgraph.gmdl.image;strokeColor=#bbbbbb;fillColor=#ffffff;" vertex="1" parent="1">
                    <mxGeometry x="75" y="150" width="200" height="110" as="geometry"/>
                </mxCell>
                <mxCell id="30" value="Pergunta" style="text;html=1;strokeColor=none;fillColor=none;align=center;verticalAlign=middle;whiteSpace=wrap;rounded=0;fontColor=#000000;" vertex="1" parent="1">
                    <mxGeometry x="117.5" y="110" width="115" height="20" as="geometry"/>
                </mxCell>
                <mxCell id="31" value="&lt;br&gt;Alternativa 1&lt;br&gt;Alternativa 2&lt;br&gt;Alternativa 3" style="text;html=1;strokeColor=none;fillColor=none;spacing=5;spacingTop=-20;whiteSpace=wrap;overflow=hidden;rounded=0;fontColor=#000000;" vertex="1" parent="1">
                    <mxGeometry x="130" y="270" width="90" height="50" as="geometry"/>
                </mxCell>
                <mxCell id="33" value="" style="rounded=1;whiteSpace=wrap;html=1;fillColor=#dae8fc;strokeColor=#6c8ebf;" vertex="1" parent="1">
                    <mxGeometry x="425" y="90" width="250" height="260" as="geometry"/>
                </mxCell>
                <mxCell id="34" value="" style="dashed=0;shape=mxgraph.gmdl.image;strokeColor=#bbbbbb;fillColor=#ffffff;" vertex="1" parent="1">
                    <mxGeometry x="450" y="150" width="200" height="110" as="geometry"/>
                </mxCell>
                <mxCell id="35" value="Pergunta" style="text;html=1;strokeColor=none;fillColor=none;align=center;verticalAlign=middle;whiteSpace=wrap;rounded=0;fontColor=#000000;" vertex="1" parent="1">
                    <mxGeometry x="492.5" y="110" width="115" height="20" as="geometry"/>
                </mxCell>
                <mxCell id="36" value="&lt;br&gt;Alternativa 1&lt;br&gt;Alternativa 2&lt;br&gt;Alternativa 3" style="text;html=1;strokeColor=none;fillColor=none;spacing=5;spacingTop=-20;whiteSpace=wrap;overflow=hidden;rounded=0;fontColor=#000000;" vertex="1" parent="1">
                    <mxGeometry x="505" y="270" width="90" height="50" as="geometry"/>
                </mxCell>
                <mxCell id="37" value="" style="rounded=1;whiteSpace=wrap;html=1;fillColor=#dae8fc;strokeColor=#6c8ebf;" vertex="1" parent="1">
                    <mxGeometry x="810" y="90" width="250" height="260" as="geometry"/>
                </mxCell>
                <mxCell id="38" value="" style="dashed=0;shape=mxgraph.gmdl.image;strokeColor=#bbbbbb;fillColor=#ffffff;" vertex="1" parent="1">
                    <mxGeometry x="835" y="150" width="200" height="110" as="geometry"/>
                </mxCell>
                <mxCell id="39" value="Pergunta" style="text;html=1;strokeColor=none;fillColor=none;align=center;verticalAlign=middle;whiteSpace=wrap;rounded=0;fontColor=#000000;" vertex="1" parent="1">
                    <mxGeometry x="877.5" y="110" width="115" height="20" as="geometry"/>
                </mxCell>
                <mxCell id="40" value="&lt;br&gt;Alternativa 1&lt;br&gt;Alternativa 2&lt;br&gt;Alternativa 3" style="text;html=1;strokeColor=none;fillColor=none;spacing=5;spacingTop=-20;whiteSpace=wrap;overflow=hidden;rounded=0;fontColor=#000000;" vertex="1" parent="1">
                    <mxGeometry x="890" y="270" width="90" height="50" as="geometry"/>
                </mxCell>
                <mxCell id="41" value="" style="rounded=1;whiteSpace=wrap;html=1;fillColor=#dae8fc;strokeColor=#6c8ebf;" vertex="1" parent="1">
                    <mxGeometry x="45" y="400" width="250" height="260" as="geometry"/>
                </mxCell>
                <mxCell id="42" value="" style="dashed=0;shape=mxgraph.gmdl.image;strokeColor=#bbbbbb;fillColor=#ffffff;" vertex="1" parent="1">
                    <mxGeometry x="70" y="460" width="200" height="110" as="geometry"/>
                </mxCell>
                <mxCell id="43" value="Pergunta" style="text;html=1;strokeColor=none;fillColor=none;align=center;verticalAlign=middle;whiteSpace=wrap;rounded=0;fontColor=#000000;" vertex="1" parent="1">
                    <mxGeometry x="112.5" y="420" width="115" height="20" as="geometry"/>
                </mxCell>
                <mxCell id="44" value="&lt;br&gt;Alternativa 1&lt;br&gt;Alternativa 2&lt;br&gt;Alternativa 3" style="text;html=1;strokeColor=none;fillColor=none;spacing=5;spacingTop=-20;whiteSpace=wrap;overflow=hidden;rounded=0;fontColor=#000000;" vertex="1" parent="1">
                    <mxGeometry x="125" y="580" width="90" height="50" as="geometry"/>
                </mxCell>
                <mxCell id="45" value="" style="rounded=1;whiteSpace=wrap;html=1;fillColor=#dae8fc;strokeColor=#6c8ebf;" vertex="1" parent="1">
                    <mxGeometry x="420" y="400" width="250" height="260" as="geometry"/>
                </mxCell>
                <mxCell id="46" value="" style="dashed=0;shape=mxgraph.gmdl.image;strokeColor=#bbbbbb;fillColor=#ffffff;" vertex="1" parent="1">
                    <mxGeometry x="445" y="460" width="200" height="110" as="geometry"/>
                </mxCell>
                <mxCell id="47" value="Pergunta" style="text;html=1;strokeColor=none;fillColor=none;align=center;verticalAlign=middle;whiteSpace=wrap;rounded=0;fontColor=#000000;" vertex="1" parent="1">
                    <mxGeometry x="487.5" y="420" width="115" height="20" as="geometry"/>
                </mxCell>
                <mxCell id="48" value="&lt;br&gt;Alternativa 1&lt;br&gt;Alternativa 2&lt;br&gt;Alternativa 3" style="text;html=1;strokeColor=none;fillColor=none;spacing=5;spacingTop=-20;whiteSpace=wrap;overflow=hidden;rounded=0;fontColor=#000000;" vertex="1" parent="1">
                    <mxGeometry x="500" y="580" width="90" height="50" as="geometry"/>
                </mxCell>
                <mxCell id="49" value="" style="rounded=1;whiteSpace=wrap;html=1;fillColor=#dae8fc;strokeColor=#6c8ebf;" vertex="1" parent="1">
                    <mxGeometry x="805" y="400" width="250" height="260" as="geometry"/>
                </mxCell>
                <mxCell id="50" value="" style="dashed=0;shape=mxgraph.gmdl.image;strokeColor=#bbbbbb;fillColor=#ffffff;" vertex="1" parent="1">
                    <mxGeometry x="830" y="460" width="200" height="110" as="geometry"/>
                </mxCell>
                <mxCell id="51" value="Pergunta" style="text;html=1;strokeColor=none;fillColor=none;align=center;verticalAlign=middle;whiteSpace=wrap;rounded=0;fontColor=#000000;" vertex="1" parent="1">
                    <mxGeometry x="872.5" y="420" width="115" height="20" as="geometry"/>
                </mxCell>
                <mxCell id="52" value="&lt;br&gt;Alternativa 1&lt;br&gt;Alternativa 2&lt;br&gt;Alternativa 3" style="text;html=1;strokeColor=none;fillColor=none;spacing=5;spacingTop=-20;whiteSpace=wrap;overflow=hidden;rounded=0;fontColor=#000000;" vertex="1" parent="1">
                    <mxGeometry x="885" y="580" width="90" height="50" as="geometry"/>
                </mxCell>
                <mxCell id="53" value="" style="rounded=1;whiteSpace=wrap;html=1;fillColor=#dae8fc;strokeColor=#6c8ebf;" vertex="1" parent="1">
                    <mxGeometry x="45" y="710" width="250" height="260" as="geometry"/>
                </mxCell>
                <mxCell id="54" value="" style="dashed=0;shape=mxgraph.gmdl.image;strokeColor=#bbbbbb;fillColor=#ffffff;" vertex="1" parent="1">
                    <mxGeometry x="70" y="770" width="200" height="110" as="geometry"/>
                </mxCell>
                <mxCell id="55" value="Pergunta" style="text;html=1;strokeColor=none;fillColor=none;align=center;verticalAlign=middle;whiteSpace=wrap;rounded=0;fontColor=#000000;" vertex="1" parent="1">
                    <mxGeometry x="112.5" y="730" width="115" height="20" as="geometry"/>
                </mxCell>
                <mxCell id="56" value="&lt;br&gt;Alternativa 1&lt;br&gt;Alternativa 2&lt;br&gt;Alternativa 3" style="text;html=1;strokeColor=none;fillColor=none;spacing=5;spacingTop=-20;whiteSpace=wrap;overflow=hidden;rounded=0;fontColor=#000000;" vertex="1" parent="1">
                    <mxGeometry x="125" y="890" width="90" height="50" as="geometry"/>
                </mxCell>
                <mxCell id="57" value="" style="rounded=1;whiteSpace=wrap;html=1;fillColor=#dae8fc;strokeColor=#6c8ebf;" vertex="1" parent="1">
                    <mxGeometry x="420" y="710" width="250" height="260" as="geometry"/>
                </mxCell>
                <mxCell id="58" value="" style="dashed=0;shape=mxgraph.gmdl.image;strokeColor=#bbbbbb;fillColor=#ffffff;" vertex="1" parent="1">
                    <mxGeometry x="445" y="770" width="200" height="110" as="geometry"/>
                </mxCell>
                <mxCell id="59" value="Pergunta" style="text;html=1;strokeColor=none;fillColor=none;align=center;verticalAlign=middle;whiteSpace=wrap;rounded=0;fontColor=#000000;" vertex="1" parent="1">
                    <mxGeometry x="487.5" y="730" width="115" height="20" as="geometry"/>
                </mxCell>
                <mxCell id="60" value="&lt;br&gt;Alternativa 1&lt;br&gt;Alternativa 2&lt;br&gt;Alternativa 3" style="text;html=1;strokeColor=none;fillColor=none;spacing=5;spacingTop=-20;whiteSpace=wrap;overflow=hidden;rounded=0;fontColor=#000000;" vertex="1" parent="1">
                    <mxGeometry x="500" y="890" width="90" height="50" as="geometry"/>
                </mxCell>
                <mxCell id="61" value="" style="rounded=1;whiteSpace=wrap;html=1;fillColor=#dae8fc;strokeColor=#6c8ebf;" vertex="1" parent="1">
                    <mxGeometry x="805" y="710" width="250" height="260" as="geometry"/>
                </mxCell>
                <mxCell id="62" value="" style="dashed=0;shape=mxgraph.gmdl.image;strokeColor=#bbbbbb;fillColor=#ffffff;" vertex="1" parent="1">
                    <mxGeometry x="830" y="770" width="200" height="110" as="geometry"/>
                </mxCell>
                <mxCell id="63" value="Pergunta" style="text;html=1;strokeColor=none;fillColor=none;align=center;verticalAlign=middle;whiteSpace=wrap;rounded=0;fontColor=#000000;" vertex="1" parent="1">
                    <mxGeometry x="872.5" y="730" width="115" height="20" as="geometry"/>
                </mxCell>
                <mxCell id="64" value="&lt;br&gt;Alternativa 1&lt;br&gt;Alternativa 2&lt;br&gt;Alternativa 3" style="text;html=1;strokeColor=none;fillColor=none;spacing=5;spacingTop=-20;whiteSpace=wrap;overflow=hidden;rounded=0;fontColor=#000000;" vertex="1" parent="1">
                    <mxGeometry x="885" y="890" width="90" height="50" as="geometry"/>
                </mxCell>
                <mxCell id="65" value="" style="rounded=1;whiteSpace=wrap;html=1;fillColor=#dae8fc;strokeColor=#6c8ebf;" vertex="1" parent="1">
                    <mxGeometry x="40" y="1015" width="250" height="260" as="geometry"/>
                </mxCell>
                <mxCell id="66" value="" style="dashed=0;shape=mxgraph.gmdl.image;strokeColor=#bbbbbb;fillColor=#ffffff;" vertex="1" parent="1">
                    <mxGeometry x="65" y="1075" width="200" height="110" as="geometry"/>
                </mxCell>
                <mxCell id="67" value="Pergunta" style="text;html=1;strokeColor=none;fillColor=none;align=center;verticalAlign=middle;whiteSpace=wrap;rounded=0;fontColor=#000000;" vertex="1" parent="1">
                    <mxGeometry x="107.5" y="1035" width="115" height="20" as="geometry"/>
                </mxCell>
                <mxCell id="68" value="&lt;br&gt;Alternativa 1&lt;br&gt;Alternativa 2&lt;br&gt;Alternativa 3" style="text;html=1;strokeColor=none;fillColor=none;spacing=5;spacingTop=-20;whiteSpace=wrap;overflow=hidden;rounded=0;fontColor=#000000;" vertex="1" parent="1">
                    <mxGeometry x="120" y="1195" width="90" height="50" as="geometry"/>
                </mxCell>
                <mxCell id="69" value="" style="rounded=1;whiteSpace=wrap;html=1;fillColor=#dae8fc;strokeColor=#6c8ebf;" vertex="1" parent="1">
                    <mxGeometry x="415" y="1015" width="250" height="260" as="geometry"/>
                </mxCell>
                <mxCell id="70" value="" style="dashed=0;shape=mxgraph.gmdl.image;strokeColor=#bbbbbb;fillColor=#ffffff;" vertex="1" parent="1">
                    <mxGeometry x="440" y="1075" width="200" height="110" as="geometry"/>
                </mxCell>
                <mxCell id="71" value="Pergunta" style="text;html=1;strokeColor=none;fillColor=none;align=center;verticalAlign=middle;whiteSpace=wrap;rounded=0;fontColor=#000000;" vertex="1" parent="1">
                    <mxGeometry x="482.5" y="1035" width="115" height="20" as="geometry"/>
                </mxCell>
                <mxCell id="72" value="&lt;br&gt;Alternativa 1&lt;br&gt;Alternativa 2&lt;br&gt;Alternativa 3" style="text;html=1;strokeColor=none;fillColor=none;spacing=5;spacingTop=-20;whiteSpace=wrap;overflow=hidden;rounded=0;fontColor=#000000;" vertex="1" parent="1">
                    <mxGeometry x="495" y="1195" width="90" height="50" as="geometry"/>
                </mxCell>
                <mxCell id="73" value="" style="rounded=1;whiteSpace=wrap;html=1;fillColor=#dae8fc;strokeColor=#6c8ebf;" vertex="1" parent="1">
                    <mxGeometry x="800" y="1015" width="250" height="260" as="geometry"/>
                </mxCell>
                <mxCell id="74" value="" style="dashed=0;shape=mxgraph.gmdl.image;strokeColor=#bbbbbb;fillColor=#ffffff;" vertex="1" parent="1">
                    <mxGeometry x="825" y="1075" width="200" height="110" as="geometry"/>
                </mxCell>
                <mxCell id="75" value="Pergunta" style="text;html=1;strokeColor=none;fillColor=none;align=center;verticalAlign=middle;whiteSpace=wrap;rounded=0;fontColor=#000000;" vertex="1" parent="1">
                    <mxGeometry x="867.5" y="1035" width="115" height="20" as="geometry"/>
                </mxCell>
                <mxCell id="76" value="&lt;br&gt;Alternativa 1&lt;br&gt;Alternativa 2&lt;br&gt;Alternativa 3" style="text;html=1;strokeColor=none;fillColor=none;spacing=5;spacingTop=-20;whiteSpace=wrap;overflow=hidden;rounded=0;fontColor=#000000;" vertex="1" parent="1">
                    <mxGeometry x="880" y="1195" width="90" height="50" as="geometry"/>
                </mxCell>
                <mxCell id="77" value="" style="rounded=1;whiteSpace=wrap;html=1;fillColor=#030303;" vertex="1" parent="1">
                    <mxGeometry x="434" y="10" width="232" height="60" as="geometry"/>
                </mxCell>
                <mxCell id="78" value="&lt;font style=&quot;font-size: 19px&quot;&gt;Start Button&lt;/font&gt;" style="text;html=1;strokeColor=none;fillColor=none;align=center;verticalAlign=top;whiteSpace=wrap;rounded=0;fontColor=#FFFFFF;" vertex="1" parent="1">
                    <mxGeometry x="484" y="25" width="132" height="30" as="geometry"/>
                </mxCell>
                <mxCell id="80" value="" style="rounded=1;whiteSpace=wrap;html=1;fillColor=#000000;" vertex="1" parent="1">
                    <mxGeometry x="429" y="1290" width="232" height="60" as="geometry"/>
                </mxCell>
                <mxCell id="81" value="&lt;font style=&quot;font-size: 19px&quot;&gt;Enviar respostas&lt;/font&gt;" style="text;html=1;strokeColor=none;fillColor=none;align=center;verticalAlign=top;whiteSpace=wrap;rounded=0;fontColor=#FFFFFF;" vertex="1" parent="1">
                    <mxGeometry x="464.5" y="1305" width="161" height="30" as="geometry"/>
                </mxCell>
                <mxCell id="83" value="&lt;font style=&quot;font-size: 19px&quot;&gt;Span &amp;gt; Recorde&lt;br&gt;Span &amp;gt; Score&lt;br&gt;&lt;/font&gt;" style="text;html=1;strokeColor=none;fillColor=none;align=left;verticalAlign=top;whiteSpace=wrap;rounded=0;fontColor=#000000;" vertex="1" parent="1">
                    <mxGeometry x="429" y="1350" width="161" height="50" as="geometry"/>
                </mxCell>
            </root>
        </mxGraphModel>
    </diagram>
</mxfile>